<mxfile host="app.diagrams.net" modified="2023-04-22T20:55:13.876Z" agent="Mozilla/5.0 (Macintosh; Intel Mac OS X 10_15_7) AppleWebKit/537.36 (KHTML, like Gecko) Chrome/112.0.0.0 Safari/537.36" version="21.1.7" etag="_fLu6iTk41lHAY4c2wCz" type="github">
  <diagram name="Page-1" id="MwBRxflhHFFQ3yZeq8Po">
    <mxGraphModel>
      <root>
        <mxCell id="0" />
        <mxCell id="1" parent="0" />
      </root>
    </mxGraphModel>
  </diagram>
</mxfile>
